# xmcd
# 
# Track frame offsets:
#     150
#     16432
#     33415
#     57617
#     81242
#     99185
#     126279
#     138145
#     150042
#     163245
#     197650
#     206547
#     235155
# 
# Disc length: 3478
# 
# Revision: 1
# Processed by: cddbd v1.5.2PL0 Copyright (c) Steve Scherf et al.
# Submitted via: fre:ac v1.0.31
# 
DISCID=a30d940d
DTITLE=Various Artist - Keltia n. 3
DYEAR=1996
DGENRE=Celtic
TTITLE0=AA.VV - capercaille - Ailein dunn
TTITLE1=AA.VV - Karen Ashbrook - Crested Hens
TTITLE2=AA.VV - Ensemble Galilei - Planxty drew
TTITLE3=AA.VV - Celeste Howard - The gateway
TTITLE4=AA.VV - Nightnoise - Brid og ni mhaille
TTITLE5=AA.VV - Andrew White - Greenstone waters
TTITLE6=AA.VV - Shelley Phillips - Rondes
TTITLE7=AA.VV - Patrick Campbell - The maid behind the bar 1
TTITLE8=AA.VV - John Whelan - Creol nanolag
TTITLE9=AA.VV - Will Millar - Haunted kenban
TTITLE10=AA.VV - Andrew White - Greenstone waters farewell
TTITLE11=AA.VV - Kim Robertson - Doucement
TTITLE12=AA.VV - Jon Mark - Mayday morning
EXTD=
EXTT0=
EXTT1=
EXTT2=
EXTT3=
EXTT4=
EXTT5=
EXTT6=
EXTT7=
EXTT8=
EXTT9=
EXTT10=
EXTT11=
EXTT12=
PLAYORDER=
